HIERARCHY
ROOT Hips
{
	OFFSET 0.00000 0.00000 0.00000
	CHANNELS 6 Xposition Yposition Zposition Zrotation Yrotation Xrotation 
	JOINT LHipJoint
	{
		OFFSET 0 0 0
		CHANNELS 3 Zrotation Yrotation Xrotation
		JOINT LeftUpLeg
		{
			OFFSET 1.62964 -1.40469 0.78906
			CHANNELS 3 Zrotation Yrotation Xrotation
			JOINT LeftLeg
			{
				OFFSET 2.29640 -6.30932 0.00000
				CHANNELS 3 Zrotation Yrotation Xrotation
				JOINT LeftFoot
				{
					OFFSET 2.29451 -6.30412 0.00000
					CHANNELS 3 Zrotation Yrotation Xrotation
					JOINT LeftToeBase
					{
						OFFSET 0.03611 -0.09921 1.56387
						CHANNELS 3 Zrotation Yrotation Xrotation
						End Site
						{
							OFFSET 0.00000 -0.00000 0.80291
						}
					}
				}
			}
		}
	}
	JOINT RHipJoint
	{
		OFFSET 0 0 0
		CHANNELS 3 Zrotation Yrotation Xrotation
		JOINT RightUpLeg
		{
			OFFSET -1.73712 -1.40469 0.78906
			CHANNELS 3 Zrotation Yrotation Xrotation
			JOINT RightLeg
			{
				OFFSET -2.28137 -6.26801 0.00000
				CHANNELS 3 Zrotation Yrotation Xrotation
				JOINT RightFoot
				{
					OFFSET -2.28681 -6.28298 0.00000
					CHANNELS 3 Zrotation Yrotation Xrotation
					JOINT RightToeBase
					{
						OFFSET -0.15927 -0.43759 1.61103
						CHANNELS 3 Zrotation Yrotation Xrotation
						End Site
						{
							OFFSET -0.00000 -0.00000 0.84630
						}
					}
				}
			}
		}
	}
	JOINT LowerBack
	{
		OFFSET 0 0 0
		CHANNELS 3 Zrotation Yrotation Xrotation
		JOINT Spine
		{
			OFFSET -0.04227 2.04338 -0.00225
			CHANNELS 3 Zrotation Yrotation Xrotation
			JOINT Spine1
			{
				OFFSET -0.02148 2.04482 -0.04273
				CHANNELS 3 Zrotation Yrotation Xrotation
				JOINT Neck
				{
					OFFSET 0 0 0
					CHANNELS 3 Zrotation Yrotation Xrotation
					JOINT Neck1
					{
						OFFSET 0.09180 1.44629 0.19359
						CHANNELS 3 Zrotation Yrotation Xrotation
						JOINT Head
						{
							OFFSET 0.00887 1.40645 0.14750
							CHANNELS 3 Zrotation Yrotation Xrotation
							End Site
							{
								OFFSET -0.00669 1.50671 0.03707
							}
						}
					}
				}
				JOINT LeftShoulder
				{
					OFFSET 0 0 0
					CHANNELS 3 Zrotation Yrotation Xrotation
					JOINT LeftArm
					{
						OFFSET 2.17674 1.86763 -0.06520
						CHANNELS 3 Zrotation Yrotation Xrotation
						JOINT LeftForeArm
						{
							OFFSET 4.65776 -0.00000 0.00000
							CHANNELS 3 Zrotation Yrotation Xrotation
							JOINT LeftHand
							{
								OFFSET 3.55539 -0.00000 0.00000
								CHANNELS 3 Zrotation Yrotation Xrotation
								JOINT LeftFingerBase
								{
									OFFSET 0 0 0
									CHANNELS 3 Zrotation Yrotation Xrotation
									JOINT LeftHandIndex1
									{
										OFFSET 0.70726 -0.00000 0.00000
										CHANNELS 3 Zrotation Yrotation Xrotation
										End Site
										{
											OFFSET 0.57022 -0.00000 0.00000
										}
									}
								}
								JOINT LThumb
								{
									OFFSET 0 0 0
									CHANNELS 3 Zrotation Yrotation Xrotation
									End Site
									{
										OFFSET 0.57892 -0.00000 0.57892
									}
								}
							}
						}
					}
				}
				JOINT RightShoulder
				{
					OFFSET 0 0 0
					CHANNELS 3 Zrotation Yrotation Xrotation
					JOINT RightArm
					{
						OFFSET -2.80694 1.55459 -0.32496
						CHANNELS 3 Zrotation Yrotation Xrotation
						JOINT RightForeArm
						{
							OFFSET -4.71925 -0.00000 -0.00000
							CHANNELS 3 Zrotation Yrotation Xrotation
							JOINT RightHand
							{
								OFFSET -3.56990 -0.00000 0.00000
								CHANNELS 3 Zrotation Yrotation Xrotation
								JOINT RightFingerBase
								{
									OFFSET 0 0 0
									CHANNELS 3 Zrotation Yrotation Xrotation
									JOINT RightHandIndex1
									{
										OFFSET -0.50776 -0.00000 0.00000
										CHANNELS 3 Zrotation Yrotation Xrotation
										End Site
										{
											OFFSET -0.40937 -0.00000 0.00000
										}
									}
								}
								JOINT RThumb
								{
									OFFSET 0 0 0
									CHANNELS 3 Zrotation Yrotation Xrotation
									End Site
									{
										OFFSET -0.41562 -0.00000 0.41562
									}
								}
							}
						}
					}
				}
			}
		}
	}
}
MOTION
Frames: 6
Frame Time: .0083333
9.0631 14.9529 31.9893 178.9980 -3.1628 -140.7500 0.0000 0.0000 0.0000 -5.4473 -26.3229 -62.6702 8.2556 16.3041 53.4781 1.6462 -14.4005 -23.6557 0.6354 -5.1001 -14.1943 0.0000 0.0000 0.0000 8.4838 22.6636 -60.3294 -7.4427 -15.6937 50.5296 -4.4785 3.7866 -39.3740 -2.6247 10.0612 -29.1752 -4.5281 -1.0052 -13.5455 -0.1218 -0.7775 -0.8150 2.2749 -0.5771 6.7997 -0.5566 0.2714 -1.6294 5.3764 -1.2498 -24.7623 2.0810 -2.1677 -7.2651 -0.0000 0.0000 0.0000 -79.2337 0.0617 19.2268 9.0042 -15.1671 -1.2012 -0.0000 -0.0000 11.0040 19.5221 -10.6899 -3.7627 -7.1250 0.0000 -0.0000 -5.3242 18.6818 3.3528 -0.0000 0.0000 0.0000 88.2469 -6.5159 1.9297 -11.1245 18.4788 -1.8152 0.0000 0.0000 9.9606 -8.1701 -51.9395 6.4494 7.1250 -0.0000 -0.0000 64.9737 -73.9360 -49.0768
9.0599 14.8809 31.9518 178.9980 -2.9973 -140.9710 0.0000 0.0000 0.0000 -5.6856 -26.0877 -62.8620 8.5731 16.5250 54.6017 1.6294 -15.3309 -23.7524 0.3506 -3.8045 -10.5273 0.0000 0.0000 0.0000 8.4121 22.7718 -60.5386 -7.7508 -15.9329 51.6602 -4.5953 3.8579 -39.8968 -2.6327 10.0754 -29.2211 -4.4823 -0.9838 -13.1950 -0.1546 -0.7610 -0.7400 2.2205 -0.5620 6.6818 -0.5401 0.1967 -1.6992 5.3297 -1.3483 -24.5995 2.0614 -2.2004 -7.1962 -0.0000 -0.0000 0.0000 -79.4482 -0.3378 18.2489 8.6803 -14.6495 -1.1179 -0.0000 -0.0000 12.0157 19.4544 -10.8236 -3.7949 -7.1250 0.0000 -0.0000 -5.3739 18.5463 3.4005 -0.0000 -0.0000 0.0000 88.2113 -6.0069 1.7972 -10.9357 18.1897 -1.7558 0.0000 0.0000 10.5109 -8.2387 -51.7641 6.4884 7.1250 -0.0000 -0.0000 64.3606 -73.8975 -48.4887
9.0609 14.8089 31.9230 178.9680 -2.8856 -140.9550 0.0000 0.0000 0.0000 -5.7732 -25.9026 -63.3977 8.9109 16.7500 55.7814 1.6359 -15.9934 -23.9524 0.2705 -3.3455 -9.2422 0.0000 0.0000 0.0000 8.1851 23.0422 -61.1965 -8.1296 -16.2137 53.0280 -4.7028 3.5941 -40.4368 -2.7550 10.2876 -29.9130 -4.4975 -0.9209 -13.0934 -0.1700 -0.6767 -0.7237 2.2296 -0.5194 6.6361 -0.5631 0.2619 -1.6255 5.2030 -1.2808 -24.6925 2.0239 -2.1589 -7.2433 0.0000 0.0000 0.0000 -79.6446 -0.7934 17.7764 8.4417 -14.2663 -1.0583 -0.0000 -0.0000 12.7121 19.4495 -10.4151 -3.6527 -7.1250 0.0000 -0.0000 -5.3720 18.9759 3.3480 0.0000 0.0000 0.0000 88.1588 -5.6860 2.1498 -10.9501 18.2117 -1.7603 0.0000 0.0000 10.3558 -8.1789 -51.6667 6.4324 7.1250 -0.0000 -0.0000 64.0785 -73.8392 -48.1741
9.0609 14.7410 31.8850 178.9140 -2.7933 -141.2100 0.0000 0.0000 0.0000 -6.0377 -25.8002 -63.5151 9.2451 16.9629 56.9340 1.6913 -16.1576 -24.3366 0.3348 -3.7183 -10.2855 0.0000 0.0000 0.0000 8.1811 23.0943 -61.3207 -8.4351 -16.4301 54.1151 -4.8044 3.4690 -40.9185 -2.8990 10.5297 -30.7096 -4.4670 -0.7560 -12.7991 -0.2810 -0.4575 -0.6133 2.1372 -0.4060 6.5720 -0.5935 0.1426 -1.4611 5.2618 -1.4438 -24.9197 2.0666 -2.2507 -7.3419 -0.0000 0.0000 0.0000 -79.7265 -1.3157 17.7207 8.2912 -14.0239 -1.0215 -0.0000 -0.0000 13.2979 19.4090 -10.0786 -3.5283 -7.1250 0.0000 -0.0000 -5.3972 19.3326 3.3208 -0.0000 0.0000 0.0000 88.3540 -5.3759 2.2603 -11.0775 18.4069 -1.8003 0.0000 0.0000 10.1708 -8.3546 -51.7957 6.5829 7.1250 -0.0000 -0.0000 64.3971 -73.9522 -48.5814
9.0627 14.6698 31.8460 178.8540 -2.5324 -141.2210 0.0000 0.0000 0.0000 -6.2402 -25.6214 -63.9284 9.5929 17.1745 58.1189 1.7103 -16.4526 -24.5262 0.3007 -3.5259 -9.7465 0.0000 0.0000 0.0000 7.9419 23.3284 -61.8240 -8.8011 -16.6780 55.3997 -4.9253 3.7282 -41.4060 -2.9319 10.5840 -30.8894 -4.5501 -0.6039 -12.8288 -0.4502 -0.2288 -0.5551 2.0465 -0.2965 6.6341 -0.5632 0.0108 -1.4006 5.4209 -1.6296 -25.1849 2.1347 -2.3787 -7.4338 0.0000 0.0000 0.0000 -79.6822 -1.6518 18.1672 8.3084 -14.0515 -1.0257 -0.0000 -0.0000 13.3555 19.3522 -9.9254 -3.4643 -7.1250 0.0000 -0.0000 -5.4362 19.4976 3.3250 0.0000 0.0000 0.0000 88.5931 -4.9505 2.6536 -11.1731 18.5530 -1.8306 0.0000 0.0000 9.9432 -9.0940 -51.4125 7.1316 7.1250 -0.0000 -0.0000 62.7059 -74.0825 -47.2286
9.0655 14.6124 31.8029 178.6700 -2.4423 -141.5020 0.0000 0.0000 0.0000 -6.6078 -25.6461 -63.8767 9.9082 17.3579 59.1812 1.6997 -16.9826 -24.5991 0.1987 -2.8705 -7.9185 0.0000 0.0000 0.0000 7.9079 23.2151 -61.6429 -9.0353 -16.8304 56.2120 -5.0495 4.0290 -41.8963 -2.9754 10.6552 -31.1255 -4.7140 -0.6754 -12.5751 -0.5355 -0.2974 -0.4238 2.0367 -0.3328 6.6374 -0.4894 -0.0165 -1.5079 5.4456 -1.6901 -25.2326 2.1348 -2.4294 -7.4297 -0.0000 0.0000 0.0000 -79.7104 -1.8128 18.6865 8.4286 -14.2452 -1.0551 -0.0000 -0.0000 12.9980 19.4362 -9.6962 -3.4011 -7.1250 0.0000 -0.0000 -5.3746 19.7329 3.2586 -0.0000 0.0000 0.0000 88.6305 -4.4812 3.9241 -11.2385 18.6529 -1.8515 0.0000 0.0000 9.7947 -10.2311 -50.7482 7.9565 7.1250 -0.0000 -0.0000 59.8190 -74.2366 -44.8749
